<svg width="21" height="18" viewBox="0 0 21 18" fill="none" xmlns="http://www.w3.org/2000/svg">
<path d="M10.5 0V1M10.5 17V18M19.5 9H18.5M2.5 9H1.5M16.864 15.364L16.157 14.657M4.843 3.343L4.136 2.636M16.864 2.636L16.157 3.343M4.843 14.657L4.136 15.364M14.5 9C14.5 10.0609 14.0786 11.0783 13.3284 11.8284C12.5783 12.5786 11.5609 13 10.5 13C9.43913 13 8.42172 12.5786 7.67157 11.8284C6.92143 11.0783 6.5 10.0609 6.5 9C6.5 7.93913 6.92143 6.92172 7.67157 6.17157C8.42172 5.42143 9.43913 5 10.5 5C11.5609 5 12.5783 5.42143 13.3284 6.17157C14.0786 6.92172 14.5 7.93913 14.5 9Z" stroke="#111827" stroke-width="2" stroke-linecap="round" stroke-linejoin="round"/>
</svg>
